<svg width="70" height="70" viewBox="0 0 70 70" fill="none" xmlns="http://www.w3.org/2000/svg">
<rect width="70" height="70" rx="35" fill="#3FC380"/>
<g opacity="0.4">
<path d="M48.0222 37.4828C50.9169 37.4828 53.2636 35.1361 53.2636 32.2414C53.2636 29.3466 50.9169 27 48.0222 27C45.1275 27 42.7808 29.3466 42.7808 32.2414C42.7808 35.1361 45.1275 37.4828 48.0222 37.4828Z" fill="white"/>
<path d="M48.0215 40.1035C42.7748 40.1035 38.5215 44.3568 38.5215 49.6035H57.5215C57.5215 44.3568 53.2682 40.1035 48.0215 40.1035Z" fill="white"/>
</g>
<g opacity="0.4">
<path d="M21.1531 37.4828C24.0478 37.4828 26.3944 35.1361 26.3944 32.2414C26.3944 29.3466 24.0478 27 21.1531 27C18.2583 27 15.9117 29.3466 15.9117 32.2414C15.9117 35.1361 18.2583 37.4828 21.1531 37.4828Z" fill="white"/>
<path d="M21.1523 40.1035C15.9056 40.1035 11.6523 44.3568 11.6523 49.6035H30.6523C30.6523 44.3568 26.3991 40.1035 21.1523 40.1035Z" fill="white"/>
</g>
<path d="M34.9994 33.913C38.8414 33.913 41.9559 30.7985 41.9559 26.9565C41.9559 23.1145 38.8414 20 34.9994 20C31.1574 20 28.0428 23.1145 28.0428 26.9565C28.0428 30.7985 31.1574 33.913 34.9994 33.913Z" fill="white"/>
<path d="M21.1406 50.0001V51.2501H22.3906H47.608H48.858V50.0001C48.858 42.3461 42.6533 36.1414 34.9993 36.1414C27.3454 36.1414 21.1406 42.3461 21.1406 50.0001Z" fill="white" stroke="#3FC380" stroke-width="2.5"/>
</svg>
