<svg width="19" height="23" viewBox="0 0 19 23" fill="none" xmlns="http://www.w3.org/2000/svg">
<g opacity="0.5">
<path d="M18.1562 20.2717V12.0984C18.1562 10.6229 16.9525 9.4192 15.4771 9.4192H14.8026V5.64871C14.8026 2.53396 12.2687 0 9.15391 0C6.03915 0 3.50988 2.53864 3.50988 5.64871V6.29977C3.50988 6.74473 3.87054 7.1007 4.31082 7.1007C4.7511 7.1007 5.11644 6.74005 5.11644 6.29977V5.64871C5.11644 3.4192 6.92908 1.60656 9.15859 1.60656C11.3881 1.60656 13.2007 3.4192 13.2007 5.64871V9.4192H2.83541C1.36 9.4192 0.15625 10.6183 0.15625 12.0984V20.2717C0.15625 21.7471 1.36 22.9508 2.83541 22.9508H15.4818C16.9572 22.9461 18.1562 21.7471 18.1562 20.2717ZM1.76749 20.2717V12.0984C1.76749 11.5082 2.24993 11.0258 2.84009 11.0258H15.4818C16.0719 11.0258 16.5544 11.5082 16.5544 12.0984V20.2717C16.5544 20.8618 16.0719 21.3443 15.4818 21.3443H2.83541C2.24524 21.3396 1.76749 20.8618 1.76749 20.2717Z" fill="black"/>
<path d="M9.15535 14.3887C8.71039 14.3887 8.34973 14.7493 8.34973 15.1896V17.2645C8.34973 17.7095 8.71039 18.0655 9.15535 18.0655C9.60032 18.0655 9.95629 17.7048 9.95629 17.2645V15.1896C9.95629 14.7493 9.60032 14.3887 9.15535 14.3887Z" fill="black"/>
</g>
</svg>
