<svg width="70" height="70" viewBox="0 0 70 70" fill="none" xmlns="http://www.w3.org/2000/svg">
<rect width="70" height="70" rx="35" fill="#FFA42F"/>
<path d="M54.7525 34.6149L44.5437 24.4061C44.2263 24.0886 43.6646 24.0886 43.3471 24.4061L41.1339 26.6193C40.8033 26.9499 40.8033 27.4858 41.1339 27.8163L48.5313 35.2129L41.1343 42.6108C40.8037 42.9414 40.8037 43.4772 41.1343 43.8078L43.3475 46.0211C43.5063 46.1798 43.7217 46.2695 43.946 46.2695C44.17 46.2695 44.3858 46.1798 44.5445 46.0211L54.7525 35.8127C55.0831 35.4817 55.0831 34.9454 54.7525 34.6149Z" fill="white"/>
<path d="M28.8662 42.6109L21.47 35.2139L28.8674 27.8172C29.0262 27.6585 29.1155 27.4435 29.1155 27.2187C29.1155 26.9944 29.0266 26.779 28.8674 26.6202L26.6542 24.407C26.4954 24.2482 26.28 24.1589 26.0557 24.1589C25.8313 24.1589 25.6159 24.2482 25.4572 24.407L15.2479 34.6149C14.9174 34.9455 14.9174 35.4814 15.2479 35.8124L25.4567 46.0207C25.6155 46.1795 25.8309 46.2692 26.0552 46.2692C26.2796 46.2692 26.495 46.1795 26.6537 46.0207L28.867 43.8075C29.1976 43.4773 29.1976 42.9415 28.8662 42.6109Z" fill="white"/>
<path d="M40.8074 20.9717C40.6999 20.7745 40.5187 20.628 40.3037 20.5645L38.5095 20.035C38.0617 19.9021 37.5901 20.1591 37.4581 20.6073L29.1286 48.8152C29.0651 49.0306 29.0897 49.2621 29.1967 49.4589C29.3038 49.6566 29.4854 49.8026 29.7004 49.8665L31.4947 50.3961C31.5747 50.4198 31.6555 50.4312 31.7347 50.4312C32.0999 50.4312 32.4373 50.1925 32.5461 49.8238L40.8756 21.6155C40.939 21.4001 40.9149 21.1685 40.8074 20.9717Z" fill="white"/>
</svg>
