<svg width="70" height="70" viewBox="0 0 70 70" fill="none" xmlns="http://www.w3.org/2000/svg">
<rect width="70" height="70" rx="35" fill="#6AB04C"/>
<path d="M47.7249 32.1147C47.7166 32.1147 47.7124 32.1147 47.704 32.1147C47.3821 27.0263 43.151 23 37.9831 23C33.2126 23 29.2448 26.4285 28.4044 30.9523C28.2957 30.9482 28.1828 30.944 28.0741 30.944C24.5202 30.944 21.5224 33.2979 20.5441 36.5298C20.3935 36.5173 20.2388 36.5089 20.0841 36.5089C17.2787 36.5089 15 38.7834 15 41.5931C15 44.4028 17.2745 46.6773 20.08 46.6773C20.1218 46.6773 47.7208 46.6773 47.7208 46.6773C51.743 46.6773 55 43.4161 55 39.398C55 35.3801 51.7472 32.1147 47.7249 32.1147Z" fill="white"/>
</svg>
