<svg width="70" height="70" viewBox="0 0 70 70" fill="none" xmlns="http://www.w3.org/2000/svg">
<rect width="70" height="70" rx="35" fill="#00A99D"/>
<path d="M34.5 18C24.8506 18 17 25.8506 17 35.5C17 45.1494 24.8506 53 34.5 53C37.5772 53 40.6032 52.1904 43.2521 50.6576L41.0625 46.8701C39.078 48.0183 36.8082 48.625 34.5 48.625C27.2625 48.625 21.375 42.7375 21.375 35.5C21.375 28.2625 27.2625 22.375 34.5 22.375C41.7375 22.375 47.625 28.2625 47.625 35.5V37.4055C47.625 38.8368 46.7054 39.875 45.4375 39.875C44.2316 39.875 43.25 38.8934 43.25 37.6875V28.9375H40.2261C38.6872 27.5931 36.699 26.75 34.5 26.75C29.6753 26.75 25.75 30.6753 25.75 35.5C25.75 40.3247 29.6753 44.25 34.5 44.25C36.7975 44.25 38.8748 43.3415 40.4377 41.8879C41.6424 43.3196 43.4243 44.25 45.4375 44.25C49.1172 44.25 52 41.2433 52 37.4055V35.5C52 25.8506 44.1494 18 34.5 18V18ZM34.5 39.875C32.0871 39.875 30.125 37.9128 30.125 35.5C30.125 33.0871 32.0872 31.125 34.5 31.125C36.9129 31.125 38.875 33.0872 38.875 35.5C38.875 37.9129 36.9129 39.875 34.5 39.875Z" fill="white"/>
</svg>
