<svg width="16" height="16" viewBox="0 0 16 16" fill="none" xmlns="http://www.w3.org/2000/svg">
<path d="M14.7492 6.74996H9.24939V1.2502C9.24939 0.559957 8.68976 0 7.9992 0C7.30864 0 6.749 0.559636 6.749 1.2502V6.74996H1.24987C0.559636 6.74996 0 7.3096 0 8.00016C0 8.69072 0.559315 9.25003 1.24987 9.25003H6.74964V14.7498C6.74964 15.44 7.30928 16 7.99984 16C8.6904 16 9.25003 15.4404 9.25003 14.7498V9.25003H14.7498C15.4404 9.25003 16 8.6904 16 8.00016C16 7.30992 15.4397 6.74996 14.7492 6.74996Z" fill="#B1B8C0"/>
</svg>
