<svg width="70" height="70" viewBox="0 0 70 70" fill="none" xmlns="http://www.w3.org/2000/svg">
<rect width="70" height="70" rx="35" fill="#00A99D"/>
<path d="M25.8107 53.3913H32.8762V45.2631H37.1232V53.3913H44.1888V17H25.8107V53.3913ZM36.2889 21.2887H40.5358V26.0666H36.2889V21.2887ZM36.2889 28.9675H40.5358V33.7453H36.2889V28.9675ZM36.2889 36.646H40.5358V41.4239H36.2889V36.646ZM29.4635 21.2887H33.7104V26.0666H29.4635V21.2887ZM29.4635 28.9675H33.7104V33.7453H29.4635V28.9675ZM29.4635 36.646H33.7104V41.4239H29.4635V36.646Z" fill="white"/>
<path opacity="0.4" d="M45.8384 20.26V45.9915H48.5669V53.3914H54.9995V20.26H45.8384ZM51.6739 42.4962H47.8074V38.1464H51.6738V42.4962H51.6739ZM51.6739 35.5052H47.8074V31.1555H51.6738V35.5052H51.6739ZM51.6739 28.5144H47.8074V24.1647H51.6738V28.5144H51.6739Z" fill="white"/>
<path opacity="0.4" d="M15 53.3914H21.4326V45.9915H24.1611V20.26H15V53.3914ZM18.3257 24.1647H22.1921V28.5144H18.3257V24.1647ZM18.3257 31.1555H22.1921V35.5052H18.3257V31.1555ZM18.3257 38.1462H22.1921V42.4959H18.3257V38.1462Z" fill="white"/>
</svg>
