<svg width="70" height="70" viewBox="0 0 70 70" fill="none" xmlns="http://www.w3.org/2000/svg">
<rect width="70" height="70" rx="35" fill="#3F327A"/>
<path d="M46.9236 30.625H44.8194V27.8194C44.8194 22.4049 40.4145 18 35 18C29.5855 18 25.1806 22.4049 25.1806 27.8194V30.625H23.0764C22.6887 30.625 22.375 30.9387 22.375 31.3264V48.8612C22.375 50.4084 23.6332 51.6667 25.1806 51.6667H44.8195C46.3668 51.6667 47.625 50.4084 47.625 48.8611V31.3264C47.625 30.9387 47.3113 30.625 46.9236 30.625ZM37.1001 45.2768C37.122 45.4747 37.0583 45.6733 36.9254 45.822C36.7926 45.9706 36.6021 46.0556 36.4028 46.0556H33.5972C33.3979 46.0556 33.2075 45.9706 33.0746 45.822C32.9417 45.6734 32.878 45.4748 32.9 45.2768L33.3424 41.2979C32.6239 40.7753 32.1945 39.9486 32.1945 39.0417C32.1945 37.4944 33.4527 36.2361 35.0001 36.2361C36.5474 36.2361 37.8056 37.4943 37.8056 39.0417C37.8056 39.9486 37.3762 40.7753 36.6577 41.2979L37.1001 45.2768ZM40.6111 30.625H29.3889V27.8194C29.3889 24.7255 31.9061 22.2083 35 22.2083C38.0939 22.2083 40.6111 24.7255 40.6111 27.8194V30.625Z" fill="white"/>
</svg>
